# This file uses centimeters as units for non-parametric coordinates.

mtllib Chest.mtl
g default
v -1.994373 -1.517820 3.980012
v 1.994373 -1.517820 3.980012
v -1.994373 1.517820 3.980012
v 1.994373 1.517820 3.980012
v -1.994373 1.517820 -3.980012
v 1.994373 1.517820 -3.980012
v -1.994373 -1.517820 -3.980012
v 1.994373 -1.517820 -3.980012
vt 0.375000 0.000000
vt 0.625000 0.000000
vt 0.375000 0.250000
vt 0.625000 0.250000
vt 0.375000 0.500000
vt 0.625000 0.500000
vt 0.375000 0.750000
vt 0.625000 0.750000
vt 0.375000 1.000000
vt 0.625000 1.000000
vt 0.875000 0.000000
vt 0.875000 0.250000
vt 0.125000 0.000000
vt 0.125000 0.250000
vn 0.000000 0.000000 1.000000
vn 0.000000 0.000000 1.000000
vn 0.000000 0.000000 1.000000
vn 0.000000 0.000000 1.000000
vn 0.000000 0.000000 -1.000000
vn 0.000000 0.000000 -1.000000
vn 0.000000 0.000000 -1.000000
vn 0.000000 0.000000 -1.000000
vn 0.000000 -1.000000 0.000000
vn 0.000000 -1.000000 0.000000
vn 0.000000 -1.000000 0.000000
vn 0.000000 -1.000000 0.000000
vn 1.000000 0.000000 0.000000
vn 1.000000 0.000000 0.000000
vn 1.000000 0.000000 0.000000
vn 1.000000 0.000000 0.000000
vn -1.000000 0.000000 0.000000
vn -1.000000 0.000000 0.000000
vn -1.000000 0.000000 0.000000
vn -1.000000 0.000000 0.000000
s off
g pCube1
usemtl initialShadingGroup
f 1/1/1 2/2/2 4/4/3 3/3/4
f 5/5/5 6/6/6 8/8/7 7/7/8
f 7/7/9 8/8/10 2/10/11 1/9/12
f 2/2/13 8/11/14 6/12/15 4/4/16
f 7/13/17 1/1/18 3/3/19 5/14/20
g default
v 1.907160 2.144036 -3.966141
v 1.622327 2.703052 -3.966141
v 1.178690 3.146689 -3.966141
v 0.619674 3.431522 -3.966141
v 0.000000 3.529669 -3.966141
v -0.619674 3.431522 -3.966141
v -1.178689 3.146689 -3.966141
v -1.622327 2.703052 -3.966141
v -1.907159 2.144036 -3.966141
v -2.005306 1.524363 -3.966141
v 2.005305 1.524363 -3.966141
v 1.907160 2.144036 3.966141
v 1.622327 2.703052 3.966141
v 1.178690 3.146689 3.966141
v 0.619674 3.431522 3.966141
v 0.000000 3.529669 3.966141
v -0.619674 3.431522 3.966141
v -1.178689 3.146689 3.966141
v -1.622327 2.703052 3.966141
v -1.907159 2.144036 3.966141
v -2.005306 1.524363 3.966141
v 2.005305 1.524363 3.966141
v 0.000000 1.524363 -3.966141
v 0.000000 1.524363 3.966141
vt 0.648603 0.107966
vt 0.626409 0.064408
vt 0.591842 0.029841
vt 0.548284 0.007647
vt 0.500000 -0.000000
vt 0.451716 0.007647
vt 0.408159 0.029841
vt 0.373591 0.064409
vt 0.351397 0.107966
vt 0.343750 0.156250
vt 0.656250 0.156250
vt 0.375000 0.312500
vt 0.387500 0.312500
vt 0.400000 0.312500
vt 0.412500 0.312500
vt 0.425000 0.312500
vt 0.437500 0.312500
vt 0.450000 0.312500
vt 0.462500 0.312500
vt 0.475000 0.312500
vt 0.487500 0.312500
vt 0.612500 0.312500
vt 0.625000 0.312500
vt 0.375000 0.688440
vt 0.387500 0.688440
vt 0.400000 0.688440
vt 0.412500 0.688440
vt 0.425000 0.688440
vt 0.437500 0.688440
vt 0.450000 0.688440
vt 0.462500 0.688440
vt 0.475000 0.688440
vt 0.487500 0.688440
vt 0.612500 0.688440
vt 0.625000 0.688440
vt 0.343750 0.843750
vt 0.351397 0.892034
vt 0.373591 0.935591
vt 0.408159 0.970159
vt 0.451716 0.992353
vt 0.500000 1.000000
vt 0.548284 0.992353
vt 0.591841 0.970159
vt 0.626409 0.935591
vt 0.648603 0.892034
vt 0.656250 0.843750
vt 0.500000 0.150000
vt 0.500000 0.837500
vn 0.951057 0.309016 -0.000000
vn 0.809017 0.587785 -0.000000
vn 0.809017 0.587785 -0.000000
vn 0.951057 0.309016 -0.000000
vn 0.587785 0.809017 -0.000000
vn 0.587785 0.809017 -0.000000
vn 0.309017 0.951057 -0.000000
vn 0.309017 0.951057 -0.000000
vn -0.000000 1.000000 -0.000000
vn -0.000000 1.000000 -0.000000
vn -0.309017 0.951056 -0.000000
vn -0.309017 0.951056 -0.000000
vn -0.587785 0.809017 -0.000000
vn -0.587785 0.809017 -0.000000
vn -0.809017 0.587785 -0.000000
vn -0.809017 0.587785 -0.000000
vn -0.951056 0.309017 -0.000000
vn -0.951056 0.309017 -0.000000
vn -0.156410 -0.987532 -0.017793
vn -0.156410 -0.987532 0.017793
vn 0.156410 -0.987532 -0.017793
vn 0.156410 -0.987532 0.017793
vn 0.000000 -0.000000 -1.000000
vn 0.000000 -0.000000 -1.000000
vn 0.000000 -0.999809 -0.019529
vn 0.000000 -0.000000 -1.000000
vn 0.000000 -0.000000 -1.000000
vn 0.000000 -0.000000 -1.000000
vn 0.000000 -0.000000 -1.000000
vn 0.000000 -0.000000 -1.000000
vn 0.000000 -0.000000 -1.000000
vn 0.000000 -0.000000 -1.000000
vn 0.000000 0.000000 1.000000
vn 0.000000 0.000000 1.000000
vn 0.000000 -0.999809 0.019529
vn 0.000000 0.000000 1.000000
vn 0.000000 0.000000 1.000000
vn 0.000000 0.000000 1.000000
vn 0.000000 0.000000 1.000000
vn 0.000000 0.000000 1.000000
vn 0.000000 0.000000 1.000000
vn 0.000000 0.000000 1.000000
s 1
g pCylinder1
usemtl initialShadingGroup
f 9/26/21 10/27/22 21/39/23 20/38/24
f 10/27/22 11/28/25 22/40/26 21/39/23
f 11/28/25 12/29/27 23/41/28 22/40/26
f 12/29/27 13/30/29 24/42/30 23/41/28
f 13/30/29 14/31/31 25/43/32 24/42/30
f 14/31/31 15/32/33 26/44/34 25/43/32
f 15/32/33 16/33/35 27/45/36 26/44/34
f 16/33/35 17/34/37 28/46/38 27/45/36
f 17/34/37 18/35/39 29/47/40 28/46/38
f 19/36/41 9/37/21 20/49/24 30/48/42
f 10/16/43 9/15/44 31/61/45
f 11/17/46 10/16/43 31/61/45
f 12/18/47 11/17/46 31/61/45
f 13/19/48 12/18/47 31/61/45
f 14/20/49 13/19/48 31/61/45
f 15/21/50 14/20/49 31/61/45
f 16/22/51 15/21/50 31/61/45
f 17/23/52 16/22/51 31/61/45
f 18/24/39 17/23/52 31/61/45
f 9/15/44 19/25/41 31/61/45
f 20/59/53 21/58/54 32/62/55
f 21/58/54 22/57/56 32/62/55
f 22/57/56 23/56/57 32/62/55
f 23/56/57 24/55/58 32/62/55
f 24/55/58 25/54/59 32/62/55
f 25/54/59 26/53/60 32/62/55
f 26/53/60 27/52/61 32/62/55
f 27/52/61 28/51/62 32/62/55
f 28/51/62 29/50/40 32/62/55
f 32/62/55 29/47/40 18/24/39 31/61/45 19/36/41 30/60/42
f 30/60/42 20/59/53 32/62/55
